<?xml version="1.0" encoding="UTF-8"?>
<svg id="Calque_1" data-name="Calque 1" xmlns="http://www.w3.org/2000/svg" xmlns:xlink="http://www.w3.org/1999/xlink" viewBox="0 0 600 600">
  <defs>
    <style>
      .cls-1 {
        fill: url(#Dégradé_sans_nom_69);
      }

      .cls-2 {
        fill: none;
      }

      .cls-3 {
        fill: url(#Dégradé_sans_nom_69-2);
      }

      .cls-4 {
        fill: #50b5e8;
      }
    </style>
    <linearGradient id="Dégradé_sans_nom_69" data-name="Dégradé sans nom 69" x1="289.3" y1="202.85" x2="195.39" y2="325.36" gradientUnits="userSpaceOnUse">
      <stop offset=".19" stop-color="#fff"/>
      <stop offset=".36" stop-color="#c2e5f6"/>
      <stop offset=".51" stop-color="#90d0f0"/>
      <stop offset=".65" stop-color="#6dc1eb"/>
      <stop offset=".76" stop-color="#57b8e9"/>
      <stop offset=".83" stop-color="#50b5e8"/>
    </linearGradient>
    <linearGradient id="Dégradé_sans_nom_69-2" data-name="Dégradé sans nom 69" x1="444.65" y1="202.85" x2="350.73" y2="325.36" gradientTransform="translate(755.35) rotate(-180) scale(1 -1)" xlink:href="#Dégradé_sans_nom_69"/>
  </defs>
  <g>
    <g>
      <path class="cls-1" d="M283.47,250.2c-7.47-1.98-14.94-3.95-22.41-5.93l-32.98-7.96-2.99-.72-82.32-19.86-5.12-1.23,4.89,14.48,5.34,15.84c5.13,9.02,13.35,16.04,23.23,19.62l9.51,2.3,8.87,2.14,6.27,1.51,27.73,6.69,20.48,4.94,17.09,4.13v67.13c0,4.7,2.14,9.15,5.81,12.08l25.15,20.12v-120.37c.02-1.59-.16-5.6-2.82-9.59-1.95-2.93-4.36-4.55-5.73-5.33Z"/>
      <path class="cls-4" d="M215.07,312.55h.01s35.55,8.62,35.55,8.62l-.3-25.3-18.76-4.55-30.03-7.27-11.99-2.91-11.01-2.67c.52,3.68,2.17,11.61,8.29,19.28,4.86,6.08,10.39,9.32,13.62,10.9"/>
      <polyline class="cls-2" points="239.38 318.57 235.83 317.7 233.9 317.24 215.33 312.74 215.32 312.74"/>
      <polyline class="cls-2" points="239.08 293.26 220.32 288.7 201.79 284.22 190.29 281.44"/>
    </g>
    <line class="cls-2" x1="261.06" y1="286.15" x2="292.02" y2="312.5"/>
  </g>
  <g>
    <g>
      <path class="cls-3" d="M316.53,250.2c7.47-1.98,14.94-3.95,22.41-5.93l32.98-7.96,2.99-.72,82.32-19.86,5.12-1.23-4.89,14.48-5.34,15.84c-5.13,9.02-13.35,16.04-23.23,19.62l-9.51,2.3-8.87,2.14-6.27,1.51-27.73,6.69-20.48,4.94-17.09,4.13v67.13c0,4.7-2.14,9.15-5.81,12.08l-25.15,20.12v-120.37c-.02-1.59.16-5.6,2.82-9.59,1.95-2.93,4.36-4.55,5.73-5.33Z"/>
      <path class="cls-4" d="M384.93,312.55h-.01s-35.55,8.62-35.55,8.62l.3-25.3,18.76-4.55,30.03-7.27,11.99-2.91,11.01-2.67c-.52,3.68-2.17,11.61-8.29,19.28-4.86,6.08-10.39,9.32-13.62,10.9"/>
      <polyline class="cls-2" points="360.62 318.57 364.17 317.7 366.1 317.24 384.67 312.74 384.68 312.74"/>
      <polyline class="cls-2" points="360.92 293.26 379.68 288.7 398.21 284.22 409.71 281.44"/>
    </g>
    <line class="cls-2" x1="338.94" y1="286.15" x2="307.98" y2="312.5"/>
  </g>
</svg>